<svg width="13" height="13" viewBox="0 0 13 13" fill="none" xmlns="http://www.w3.org/2000/svg">
<path d="M12.8961 2.83356V12.1773C12.8961 12.3679 12.8203 12.5508 12.6855 12.6855C12.5508 12.8203 12.3679 12.8961 12.1773 12.8961H2.83356C2.64294 12.8961 2.46012 12.8203 2.32533 12.6855C2.19054 12.5508 2.11481 12.3679 2.11481 12.1773C2.11481 11.9867 2.19054 11.8039 2.32533 11.6691C2.46012 11.5343 2.64294 11.4586 2.83356 11.4586H10.4433L0.165201 1.18942C0.0505868 1.04977 -0.00798548 0.87248 0.000876766 0.692037C0.00973901 0.511593 0.0854021 0.340896 0.213149 0.213149C0.340896 0.0854021 0.511593 0.00973901 0.692037 0.000876766C0.872481 -0.00798548 1.04977 0.0505868 1.18942 0.165201L11.4586 10.4433V2.83356C11.4586 2.64294 11.5343 2.46012 11.6691 2.32533C11.8039 2.19054 11.9867 2.11481 12.1773 2.11481C12.3679 2.11481 12.5508 2.19054 12.6855 2.32533C12.8203 2.46012 12.8961 2.64294 12.8961 2.83356Z" fill="#0085FF"/>
</svg>
